<?xml version="1.0" standalone="no"?>
<svg xmlns:xlink="http://www.w3.org/1999/xlink" id="wave" style="transform:rotate(180deg); transition: 0.3s" viewBox="0 0 1440 130" version="1.1" xmlns="http://www.w3.org/2000/svg"><defs><linearGradient id="sw-gradient-0" x1="0" x2="0" y1="1" y2="0"><stop stop-color="rgba(47, 48, 66, 1)" offset="0%"/><stop stop-color="rgba(47, 48, 66, 1)" offset="100%"/></linearGradient></defs><path style="transform:translate(0, 0px); opacity:1" fill="url(#sw-gradient-0)" d="M0,104L24,104C48,104,96,104,144,88.8C192,74,240,43,288,45.5C336,48,384,82,432,82.3C480,82,528,48,576,30.3C624,13,672,13,720,28.2C768,43,816,74,864,88.8C912,104,960,104,1008,101.8C1056,100,1104,95,1152,88.8C1200,82,1248,74,1296,78C1344,82,1392,100,1440,97.5C1488,95,1536,74,1584,54.2C1632,35,1680,17,1728,10.8C1776,4,1824,9,1872,8.7C1920,9,1968,4,2016,15.2C2064,26,2112,52,2160,54.2C2208,56,2256,35,2304,41.2C2352,48,2400,82,2448,88.8C2496,95,2544,74,2592,58.5C2640,43,2688,35,2736,45.5C2784,56,2832,87,2880,99.7C2928,113,2976,108,3024,95.3C3072,82,3120,61,3168,58.5C3216,56,3264,74,3312,75.8C3360,78,3408,65,3432,58.5L3456,52L3456,130L3432,130C3408,130,3360,130,3312,130C3264,130,3216,130,3168,130C3120,130,3072,130,3024,130C2976,130,2928,130,2880,130C2832,130,2784,130,2736,130C2688,130,2640,130,2592,130C2544,130,2496,130,2448,130C2400,130,2352,130,2304,130C2256,130,2208,130,2160,130C2112,130,2064,130,2016,130C1968,130,1920,130,1872,130C1824,130,1776,130,1728,130C1680,130,1632,130,1584,130C1536,130,1488,130,1440,130C1392,130,1344,130,1296,130C1248,130,1200,130,1152,130C1104,130,1056,130,1008,130C960,130,912,130,864,130C816,130,768,130,720,130C672,130,624,130,576,130C528,130,480,130,432,130C384,130,336,130,288,130C240,130,192,130,144,130C96,130,48,130,24,130L0,130Z"/></svg>